<svg width="500" height="400" viewBox="0 0 500 400" xmlns="http://www.w3.org/2000/svg">
  <defs>
    <linearGradient id="grad3" x1="0%" y1="0%" x2="100%" y2="100%">
      <stop offset="0%" stop-color="#4facfe"/>
      <stop offset="100%" stop-color="#00f2fe"/>
    </linearGradient>
  </defs>
  <rect width="500" height="400" fill="#f8f9fa"/>
  
  <!-- DNA Helix -->
  <path d="M150,100 Q200,80 250,100 Q300,120 250,140 Q200,160 150,140 Q100,120 150,100" fill="none" stroke="#4facfe" stroke-width="2"/>
  <path d="M150,180 Q200,160 250,180 Q300,200 250,220 Q200,240 150,220 Q100,200 150,180" fill="none" stroke="#4facfe" stroke-width="2"/>
  <path d="M150,260 Q200,240 250,260 Q300,280 250,300 Q200,320 150,300 Q100,280 150,260" fill="none" stroke="#4facfe" stroke-width="2"/>
  
  <!-- Protein Structure -->
  <path d="M300,120 C320,140 340,130 360,150 C380,170 360,190 340,210 C320,230 300,220 280,240 C260,260 240,250 220,230" fill="none" stroke="#e91e63" stroke-width="4"/>
  
  <!-- Nodes/Atoms -->
  <circle cx="300" cy="120" r="8" fill="#4caf50"/>
  <circle cx="360" cy="150" r="8" fill="#4caf50"/>
  <circle cx="340" cy="210" r="8" fill="#4caf50"/>
  <circle cx="280" cy="240" r="8" fill="#4caf50"/>
  <circle cx="220" cy="230" r="8" fill="#4caf50"/>
  
  <!-- Title -->
  <text x="250" y="50" text-anchor="middle" font-family="Arial" font-size="24" fill="#2c3e50" font-weight="bold">AlphaFold</text>
  <text x="250" y="360" text-anchor="middle" font-family="Arial" font-size="16" fill="#666">Protein Structure Prediction</text>
  
  <!-- Molecular bonds -->
  <line x1="300" y1="120" x2="360" y2="150" stroke="#ff9800" stroke-width="2"/>
  <line x1="360" y1="150" x2="340" y2="210" stroke="#ff9800" stroke-width="2"/>
  <line x1="340" y1="210" x2="280" y2="240" stroke="#ff9800" stroke-width="2"/>
  <line x1="280" y1="240" x2="220" y2="230" stroke="#ff9800" stroke-width="2"/>
  
  <!-- AI Brain -->
  <path d="M100,280 Q130,250 160,280 Q190,310 160,340 Q130,370 100,340 Q70,310 100,280" fill="none" stroke="#9c27b0" stroke-width="2"/>
  <circle cx="130" cy="250" r="5" fill="#9c27b0"/>
  <circle cx="160" cy="280" r="5" fill="#9c27b0"/>
  <circle cx="160" cy="340" r="5" fill="#9c27b0"/>
  <circle cx="100" cy="340" r="5" fill="#9c27b0"/>
</svg>
